<?xml version="1.0" standalone="no"?>
<!DOCTYPE svg PUBLIC "-//W3C//DTD SVG 20010904//EN"
 "http://www.w3.org/TR/2001/REC-SVG-20010904/DTD/svg10.dtd">
<svg version="1.0" xmlns="http://www.w3.org/2000/svg"
 width="182.000000pt" height="53.000000pt" viewBox="0 0 182.000000 53.000000"
 preserveAspectRatio="xMidYMid meet">
<metadata>
Created by potrace 1.15, written by Peter Selinger 2001-2017
</metadata>
<g transform="translate(0.000000,53.000000) scale(0.100000,-0.100000)"
fill="#000000" stroke="none">
<path d="M97 335 c-48 -58 -90 -112 -93 -120 -7 -17 172 -137 196 -132 22 6
190 116 190 125 0 12 -181 227 -194 230 -6 1 -51 -45 -99 -103z m95 -52 l2
-118 6 120 5 119 78 -93 c42 -51 77 -96 77 -99 0 -6 -128 -90 -152 -100 -4 -2
-9 9 -9 25 l-2 28 -4 -27 c-2 -16 -6 -28 -9 -28 -2 0 -22 11 -44 25 -22 14
-58 36 -80 50 l-40 26 77 94 c43 51 81 94 86 94 4 1 8 -52 9 -116z"/>
<path d="M436 393 c-3 -3 -6 -49 -6 -100 0 -86 2 -96 25 -118 32 -33 83 -33
119 0 67 62 -5 177 -91 144 -22 -8 -23 -6 -23 31 0 37 -10 56 -24 43z"/>
<path d="M610 270 c0 -113 1 -120 20 -120 18 0 20 7 20 60 0 54 3 62 24 71 17
8 29 8 45 0 18 -10 21 -21 21 -72 0 -52 2 -60 18 -57 21 4 29 79 13 122 -12
31 -66 58 -99 49 -20 -5 -22 -1 -22 31 0 29 -4 36 -20 36 -19 0 -20 -7 -20
-120z"/>
<path d="M844 320 c-56 -23 -72 -103 -30 -145 21 -21 33 -25 85 -23 l61 2 0
61 c0 51 -4 65 -22 83 -28 25 -66 34 -94 22z"/>
<path d="M1034 320 c-12 -4 -31 -21 -43 -37 -45 -57 5 -138 81 -131 30 3 38 0
36 -12 -4 -21 -71 -26 -88 -6 -16 20 -40 21 -40 2 0 -24 50 -56 87 -56 23 0
42 8 58 25 22 21 25 33 25 90 0 79 -11 102 -55 121 -19 8 -36 14 -37 13 -2 0
-13 -4 -24 -9z"/>
<path d="M1455 321 c-63 -26 -80 -106 -31 -147 31 -27 81 -31 110 -9 28 21 10
35 -37 29 -32 -5 -46 -2 -56 10 -12 14 -7 16 58 16 65 0 71 2 71 21 0 33 -19
60 -55 75 -19 8 -36 14 -37 13 -2 0 -12 -4 -23 -8z"/>
<path d="M1613 323 l-33 -4 0 -85 c0 -77 2 -84 20 -84 18 0 20 7 20 64 0 58 2
65 22 72 31 10 48 -19 48 -83 0 -40 4 -53 15 -53 10 0 15 16 17 61 2 45 8 65
20 72 30 19 48 -8 48 -74 0 -46 3 -59 15 -59 12 0 15 14 15 68 0 73 -4 83 -38
101 -18 10 -28 9 -52 -2 -15 -8 -32 -11 -37 -7 -13 12 -45 17 -80 13z"/>
</g>
</svg>
