<?xml version="1.0" standalone="no"?>
<!DOCTYPE svg PUBLIC "-//W3C//DTD SVG 20010904//EN"
 "http://www.w3.org/TR/2001/REC-SVG-20010904/DTD/svg10.dtd">
<svg version="1.0" xmlns="http://www.w3.org/2000/svg"
 width="166.000000pt" height="44.000000pt" viewBox="0 0 166.000000 44.000000"
 preserveAspectRatio="xMidYMid meet">
<metadata>
Created by potrace 1.16, written by Peter Selinger 2001-2019
</metadata>
<g transform="translate(0.000000,44.000000) scale(0.100000,-0.100000)"
fill="#000000" stroke="none">
<path d="M58 384 c-5 -4 -8 -49 -8 -100 0 -85 2 -95 26 -123 21 -25 33 -31 65
-31 85 0 120 91 59 152 -29 28 -35 30 -80 24 l-49 -7 -3 47 c-2 25 -6 42 -10
38z"/>
<path d="M489 281 c-37 -38 -38 -79 -3 -120 25 -30 29 -31 90 -29 l64 3 0 62
c0 56 -3 63 -31 87 -41 35 -83 34 -120 -3z"/>
<path d="M699 281 c-37 -38 -38 -79 -2 -121 25 -31 30 -32 80 -27 60 6 69 -7
31 -43 -28 -25 -58 -26 -91 0 -42 33 -54 17 -15 -20 29 -27 87 -27 122 1 24
19 26 26 26 104 0 81 -1 84 -31 109 -41 35 -83 34 -120 -3z"/>
<path d="M1181 284 c-65 -54 -28 -154 57 -154 22 0 45 6 51 13 16 20 3 27 -30
15 -23 -8 -35 -7 -55 7 -41 27 -24 40 55 43 l73 3 -6 27 c-9 37 -51 72 -86 72
-16 0 -42 -11 -59 -26z"/>
<path d="M1364 301 c-9 -9 -4 -171 6 -171 6 0 10 26 10 58 0 71 15 95 55 90
28 -3 30 -6 33 -53 3 -65 10 -95 22 -95 6 0 10 29 10 64 0 71 12 89 57 84 27
-3 28 -5 31 -68 4 -94 22 -101 22 -9 0 61 -4 79 -18 92 -22 20 -51 22 -86 6
-19 -9 -29 -9 -40 0 -12 10 -92 12 -102 2z"/>
</g>
</svg>
